#!OML:ASF H:\Dans Jumps\Project 1\Capture day 1\Session 1\subject.ASF
:FULLY-SPECIFIED
:DEGREES
420
root 1.15147 17.6469 13.3839 5.92256 5.55484 -3.02568
lowerback -5.22731 0.0639205 1.74436
upperback -0.640963 -0.0480687 1.42521
thorax 2.27107 -0.0134733 0.482833
lowerneck -14.8224 -1.14136 -2.78461
upperneck 15.7045 -1.33284 2.21287
head 7.29491 -0.598166 1.03947
rclavicle 1.55176e-014 -3.67752e-015
rhumerus -23.8544 -16.7897 -83.9184
rradius 22.0512
rwrist 44.3426
rhand -23.3462 -25.9455
rfingers 7.12502
rthumb 3.10876 -55.9025
lclavicle 1.55176e-014 -3.67752e-015
lhumerus -29.5052 -4.53085 91.1837
lradius 22.8798
lwrist 6.82955
lhand -20.8427 -5.53345
lfingers 7.12502
lthumb 5.52626 24.3745
rfemur -10.4072 -3.98824 22.1085
rtibia 19.9061
rfoot -14.6544 -0.151807
rtoes 14.4893
lfemur -7.28606 6.93019 -16.2715
ltibia 17.7653
lfoot -12.4784 6.57701
ltoes -9.05455
421
root 1.14857 17.6462 13.3886 5.92707 5.61187 -3.02121
lowerback -5.23176 0.0551612 1.73346
upperback -0.634916 -0.0590935 1.41348
thorax 2.27973 -0.0189597 0.47611
lowerneck -14.8361 -1.14322 -2.80359
upperneck 15.7143 -1.33627 2.24234
head 7.30091 -0.598117 1.05186
rclavicle -7.60351e-015 -1.69961e-014
rhumerus -23.9112 -16.5128 -84.0115
rradius 22.1688
rwrist 44.1141
rhand -23.3395 -25.9715
rfingers 7.12502
rthumb 3.11524 -55.9285
lclavicle -7.60351e-015 -1.69961e-014
lhumerus -29.3503 -4.84555 91.3922
lradius 23.143
lwrist 7.12149
lhand -20.8566 -5.50635
lfingers 7.12502
lthumb 5.51275 24.4019
rfemur -10.3773 -4.02401 22.1156
rtibia 19.8836
rfoot -14.6781 -0.162185
rtoes 14.5741
lfemur -7.28104 6.92259 -16.2592
ltibia 17.7598
lfoot -12.507 6.5362
ltoes -9.06743
422
root 1.14562 17.6455 13.393 5.93155 5.66282 -3.01796
lowerback -5.23818 0.0469532 1.72074
upperback -0.627963 -0.0694437 1.40554
thorax 2.29044 -0.0241273 0.474364
lowerneck -14.8347 -1.14628 -2.81429
upperneck 15.7047 -1.33977 2.25246
head 7.29775 -0.599492 1.05653
rclavicle -1.27937e-014 -6.16232e-015
rhumerus -23.9668 -16.2325 -84.0989
rradius 22.2862
rwrist 43.8822
rhand -23.332 -25.9931
rfingers 7.12502
rthumb 3.12245 -55.95
lclavicle -1.27937e-014 -6.16232e-015
lhumerus -29.1952 -5.13165 91.585
lradius 23.3962
lwrist 7.3874
lhand -20.8992 -5.54137
lfingers 7.12502
lthumb 5.47165 24.368
rfemur -10.351 -4.05491 22.1238
rtibia 19.8639
rfoot -14.7003 -0.169992
rtoes 14.6596
lfemur -7.27517 6.91596 -16.2459
ltibia 17.7525
lfoot -12.5347 6.501
ltoes -9.07516
423
root 1.14272 17.6448 13.3968 5.93939 5.71183 -3.01619
lowerback -5.2469 0.038168 1.70886
upperback -0.622885 -0.0806955 1.40038
thorax 2.3005 -0.029756 0.474936
lowerneck -14.8211 -1.14979 -2.82255
upperneck 15.6822 -1.34279 2.25283
head 7.2882 -0.601458 1.05766
rclavicle 1.31695e-015 2.93207e-014
rhumerus -24.0267 -15.951 -84.1793
rradius 22.4048
rwrist 43.6461
rhand -23.3194 -26.0102
rfingers 7.12502
rthumb 3.13462 -55.9669
lclavicle 1.31695e-015 2.93207e-014
lhumerus -29.0446 -5.38412 91.7596
lradius 23.6479
lwrist 7.62262
lhand -20.945 -5.56891
lfingers 7.12502
lthumb 5.42741 24.3416
rfemur -10.3317 -4.08425 22.1334
rtibia 19.8468
rfoot -14.721 -0.175735
rtoes 14.7521
lfemur -7.27337 6.90891 -16.2324
ltibia 17.7429
lfoot -12.5594 6.47072
ltoes -9.08637
424
root 1.13976 17.6442 13.4003 5.94993 5.75751 -3.01796
lowerback -5.26026 0.0294574 1.69968
upperback -0.616889 -0.0922186 1.39811
thorax 2.31411 -0.0354864 0.476951
lowerneck -14.7948 -1.15576 -2.81955
upperneck 15.6413 -1.34831 2.23412
head 7.27028 -0.605788 1.05041
rclavicle 1.585e-014 3.97569e-015
rhumerus -24.0841 -15.6806 -84.253
rradius 22.5189
rwrist 43.4155
rhand -23.304 -26.0202
rfingers 7.12502
rthumb 3.14952 -55.9766
lclavicle 1.585e-014 3.97569e-015
lhumerus -28.8941 -5.60785 91.9167
lradius 23.891
lwrist 7.83268
lhand -21.0037 -5.60914
lfingers 7.12502
lthumb 5.37078 24.3028
rfemur -10.3192 -4.10802 22.1474
rtibia 19.8327
rfoot -14.7392 -0.183918
rtoes 14.8231
lfemur -7.27373 6.90054 -16.216
ltibia 17.7289
lfoot -12.58 6.44731
ltoes -9.10164
425
root 1.13696 17.6437 13.4034 5.96221 5.80167 -3.02039
lowerback -5.27563 0.0205862 1.69327
upperback -0.611183 -0.104186 1.39687
thorax 2.32854 -0.0414144 0.478425
lowerneck -14.7579 -1.16406 -2.81062
upperneck 15.589 -1.35642 2.20413
head 7.24676 -0.612103 1.03823
rclavicle -3.91668e-015 -2.18663e-015
rhumerus -24.1426 -15.4347 -84.3158
rradius 22.6252
rwrist 43.2006
rhand -23.2846 -26.0239
rfingers 7.12502
rthumb 3.16825 -55.9801
lclavicle -3.91668e-015 -2.18663e-015
lhumerus -28.743 -5.82297 92.0622
lradius 24.1188
lwrist 8.03668
lhand -21.0632 -5.6419
lfingers 7.12502
lthumb 5.31333 24.2715
rfemur -10.3118 -4.13857 22.1621
rtibia 19.8216
rfoot -14.7563 -0.186665
rtoes 14.8794
lfemur -7.27354 6.89247 -16.2004
ltibia 17.7096
lfoot -12.5965 6.42737
ltoes -9.11991
426
root 1.13426 17.6434 13.4061 5.97745 5.84428 -3.01974
lowerback -5.29319 0.0101386 1.68521
upperback -0.605303 -0.118231 1.39607
thorax 2.34438 -0.0483882 0.481142
lowerneck -14.7234 -1.17011 -2.79615
upperneck 15.5354 -1.36126 2.16652
head 7.22306 -0.617198 1.02301
rclavicle 9.5075e-015 -2.18663e-015
rhumerus -24.1987 -15.2184 -84.3679
rradius 22.7208
rwrist 43.0102
rhand -23.2586 -26.0277
rfingers 7.12502
rthumb 3.19339 -55.9835
lclavicle 9.5075e-015 -2.18663e-015
lhumerus -28.5919 -6.0195 92.1933
lradius 24.3324
lwrist 8.22742
lhand -21.129 -5.69973
lfingers 7.12502
lthumb 5.24982 24.2152
rfemur -10.3104 -4.17498 22.1733
rtibia 19.8131
rfoot -14.7714 -0.184182
rtoes 14.9203
lfemur -7.27449 6.88257 -16.1897
ltibia 17.6852
lfoot -12.6069 6.41097
ltoes -9.14425
427
root 1.13163 17.6433 13.4084 5.99502 5.88367 -3.01808
lowerback -5.31347 -0.00132819 1.67733
upperback -0.59836 -0.133759 1.39603
thorax 2.36284 -0.0560878 0.484412
lowerneck -14.6961 -1.17199 -2.7804
upperneck 15.4863 -1.36027 2.12722
head 7.20192 -0.619534 1.00765
rclavicle -1.23215e-014 4.27387e-015
rhumerus -24.2523 -15.0291 -84.411
rradius 22.8075
rwrist 42.8463
rhand -23.2282 -26.0388
rfingers 7.12502
rthumb 3.22269 -55.9942
lclavicle -1.23215e-014 4.27387e-015
lhumerus -28.4384 -6.20115 92.3113
lradius 24.5367
lwrist 8.41313
lhand -21.1932 -5.73919
lfingers 7.12502
lthumb 5.18782 24.1773
rfemur -10.3149 -4.21503 22.1835
rtibia 19.807
rfoot -14.7844 -0.176144
rtoes 14.9545
lfemur -7.27599 6.87147 -16.1812
ltibia 17.6559
lfoot -12.6109 6.39726
ltoes -9.17285
